<svg xmlns="http://www.w3.org/2000/svg" viewBox="0 0 20 20" shape-rendering="crispEdges"><rect x="3" y="3" width="2" height="1" fill="#111111"/><rect x="6" y="3" width="1" height="1" fill="#111111"/><rect x="10" y="3" width="1" height="1" fill="#111111"/><rect x="13" y="3" width="1" height="1" fill="#111111"/><rect x="15" y="3" width="2" height="1" fill="#111111"/><rect x="3" y="4" width="1" height="1" fill="#111111"/><rect x="6" y="4" width="1" height="1" fill="#111111"/><rect x="10" y="4" width="1" height="1" fill="#111111"/><rect x="13" y="4" width="1" height="1" fill="#111111"/><rect x="16" y="4" width="1" height="1" fill="#111111"/><rect x="5" y="5" width="10" height="1" fill="#111111"/><rect x="3" y="6" width="3" height="1" fill="#111111"/><rect x="14" y="6" width="3" height="1" fill="#111111"/><rect x="5" y="7" width="1" height="1" fill="#111111"/><rect x="14" y="7" width="1" height="1" fill="#111111"/><rect x="5" y="8" width="1" height="1" fill="#111111"/><rect x="8" y="8" width="4" height="1" fill="#4a4a4a"/><rect x="14" y="8" width="1" height="1" fill="#111111"/><rect x="5" y="9" width="1" height="1" fill="#111111"/><rect x="8" y="9" width="4" height="1" fill="#4a4a4a"/><rect x="14" y="9" width="1" height="1" fill="#111111"/><rect x="3" y="10" width="3" height="1" fill="#111111"/><rect x="8" y="10" width="4" height="1" fill="#4a4a4a"/><rect x="14" y="10" width="3" height="1" fill="#111111"/><rect x="5" y="11" width="1" height="1" fill="#111111"/><rect x="8" y="11" width="4" height="1" fill="#4a4a4a"/><rect x="14" y="11" width="1" height="1" fill="#111111"/><rect x="5" y="12" width="1" height="1" fill="#111111"/><rect x="14" y="12" width="1" height="1" fill="#111111"/><rect x="3" y="13" width="3" height="1" fill="#111111"/><rect x="14" y="13" width="3" height="1" fill="#111111"/><rect x="5" y="14" width="10" height="1" fill="#111111"/><rect x="3" y="15" width="1" height="1" fill="#111111"/><rect x="6" y="15" width="1" height="1" fill="#111111"/><rect x="10" y="15" width="1" height="1" fill="#111111"/><rect x="13" y="15" width="1" height="1" fill="#111111"/><rect x="16" y="15" width="1" height="1" fill="#111111"/><rect x="3" y="16" width="2" height="1" fill="#111111"/><rect x="6" y="16" width="1" height="1" fill="#111111"/><rect x="10" y="16" width="1" height="1" fill="#111111"/><rect x="13" y="16" width="1" height="1" fill="#111111"/><rect x="15" y="16" width="2" height="1" fill="#111111"/></svg>