<svg xmlns="http://www.w3.org/2000/svg" viewBox="0 0 20 20" shape-rendering="crispEdges"><rect x="6" y="4" width="4" height="1" fill="#111111"/><rect x="6" y="5" width="4" height="1" fill="#111111"/><rect x="3" y="6" width="14" height="1" fill="#111111"/><rect x="3" y="7" width="1" height="1" fill="#111111"/><rect x="16" y="7" width="1" height="1" fill="#111111"/><rect x="3" y="8" width="1" height="1" fill="#111111"/><rect x="7" y="8" width="6" height="1" fill="#4a4a4a"/><rect x="14" y="8" width="1" height="1" fill="#f4f4ef"/><rect x="16" y="8" width="1" height="1" fill="#111111"/><rect x="3" y="9" width="1" height="1" fill="#111111"/><rect x="7" y="9" width="1" height="1" fill="#4a4a4a"/><rect x="9" y="9" width="2" height="1" fill="#111111"/><rect x="12" y="9" width="1" height="1" fill="#4a4a4a"/><rect x="16" y="9" width="1" height="1" fill="#111111"/><rect x="3" y="10" width="1" height="1" fill="#111111"/><rect x="7" y="10" width="1" height="1" fill="#4a4a4a"/><rect x="9" y="10" width="2" height="1" fill="#111111"/><rect x="12" y="10" width="1" height="1" fill="#4a4a4a"/><rect x="16" y="10" width="1" height="1" fill="#111111"/><rect x="3" y="11" width="1" height="1" fill="#111111"/><rect x="7" y="11" width="1" height="1" fill="#4a4a4a"/><rect x="12" y="11" width="1" height="1" fill="#4a4a4a"/><rect x="16" y="11" width="1" height="1" fill="#111111"/><rect x="3" y="12" width="1" height="1" fill="#111111"/><rect x="7" y="12" width="6" height="1" fill="#4a4a4a"/><rect x="16" y="12" width="1" height="1" fill="#111111"/><rect x="3" y="13" width="1" height="1" fill="#111111"/><rect x="16" y="13" width="1" height="1" fill="#111111"/><rect x="3" y="14" width="14" height="1" fill="#111111"/></svg>